<svg id="图层_1" data-name="图层 1" xmlns="http://www.w3.org/2000/svg" xmlns:xlink="http://www.w3.org/1999/xlink" viewBox="0 0 180.13 248.17"><defs><style>.cls-1{fill:url(#linear-gradient);}.cls-2{fill:url(#linear-gradient-2);}.cls-3{fill:url(#linear-gradient-3);}.cls-4{fill:url(#linear-gradient-4);}.cls-5{fill:url(#linear-gradient-5);}.cls-6{fill:url(#linear-gradient-6);}.cls-7{fill:url(#linear-gradient-7);}</style><linearGradient id="linear-gradient" x1="-113.53" y1="-6.17" x2="-101.31" y2="238.14" gradientTransform="translate(170.5 1.12)" gradientUnits="userSpaceOnUse"><stop offset="0.05" stop-color="#b38450"/><stop offset="0.22" stop-color="#edc694"/><stop offset="0.36" stop-color="#e8c08e"/><stop offset="0.55" stop-color="#dcb07c"/><stop offset="0.66" stop-color="#d2a46f"/><stop offset="0.94" stop-color="#8f633c"/></linearGradient><linearGradient id="linear-gradient-2" x1="-476.57" y1="35.28" x2="-464.35" y2="279.59" gradientTransform="matrix(-1, 0, 0, 1, -321.17, 1.12)" xlink:href="#linear-gradient"/><linearGradient id="linear-gradient-3" x1="86.6" y1="109.29" x2="110.22" y2="280.58" gradientUnits="userSpaceOnUse"><stop offset="0.08" stop-color="#b60005"/><stop offset="0.13" stop-color="#c71d10"/><stop offset="0.19" stop-color="#d6371a"/><stop offset="0.24" stop-color="#df4720"/><stop offset="0.28" stop-color="#e24d22"/><stop offset="0.44" stop-color="#e60012"/><stop offset="1" stop-color="#950000"/></linearGradient><linearGradient id="linear-gradient-4" x1="83.24" y1="117.75" x2="102.75" y2="259.18" xlink:href="#linear-gradient-3"/><linearGradient id="linear-gradient-5" x1="33.29" y1="18.34" x2="45.56" y2="263.74" gradientTransform="matrix(1, 0, 0, 1, 0, 0)" xlink:href="#linear-gradient"/><linearGradient id="linear-gradient-6" x1="115.25" y1="-0.38" x2="127.47" y2="244.11" gradientTransform="matrix(1, 0, 0, 1, 0, 0)" xlink:href="#linear-gradient"/><linearGradient id="linear-gradient-7" x1="129.87" y1="-0.92" x2="142.09" y2="243.5" gradientTransform="matrix(1, 0, 0, 1, 0, 0)" xlink:href="#linear-gradient"/></defs><title>单独标</title><path class="cls-1" d="M107.22,15.25A564.81,564.81,0,0,1,70.5,63.6C47.64,90.79,17.16,132.49,17.16,183.25c0,0,17.32-36.86,41.57-65.87s48.5-62.85,48.5-62.85Z" transform="translate(-17.16 -15.25)"/><path class="cls-2" d="M107.22,15.25A564.81,564.81,0,0,0,143.94,63.6c22.86,27.19,53.35,68.89,53.35,119.65,0,0-17.32-36.86-41.57-65.87s-48.5-62.85-48.5-62.85Z" transform="translate(-17.16 -15.25)"/><rect class="cls-3" x="53.14" y="130.76" width="75.36" height="18.28"/><rect class="cls-4" x="81.62" y="97.25" width="18.4" height="150.92"/><path class="cls-5" d="M52.77,134.24s-20.91,18.17-20.91,53.54v75.65l21.29-.23Z" transform="translate(-17.16 -15.25)"/><polygon class="cls-6" points="106.43 248.17 144.65 239.31 144.65 162.81 106.43 171.67 106.43 248.17"/><polygon class="cls-7" points="151.6 170.17 151.6 239.34 121.49 246.97 159.13 244.04 159.13 168.71 151.6 170.17"/></svg>